<svg class="border shadow-md dark:border-slate-700" viewBox="0 0 772.64 772.64" xmlns="http://www.w3.org/2000/svg" preserveAspectRatio="none" style="width: 772.64px; height: 772.64px;"><rect class="bg" id="bg" x="0" y="0" width="772.64" height="772.64" fill="#ffffff"/><g transform="rotate(0 386.32 386.32)"><path id="-1" d="M -972.64 -163.16 S -876.00 -259.74&#10;            0.00 -163.16 476.32 -305.16&#10;            972.64 -163.16 1448.96 -259.74&#10;            1945.28 -163.16 h 110 V 972.64 H -972.64 Z" fill="#1A79B9"/><path id="0" d="M -972.64 30.00 S -611.00 -120.00&#10;            0.00 30.00 476.32 -69.00&#10;            972.64 30.00 1242.28 -66.58&#10;            1945.28 30.00 h 110 V 972.64 H -972.64 Z" fill="#1c65a8"/><path id="1" d="M -972.64 223.16 S -496.32 114.16&#10;            0.00 223.16 179.64 114.16&#10;            972.64 223.16 1221.28 60.16&#10;            1945.28 223.16 h 110 V 972.64 H -972.64 Z" fill="#1e5197"/><path id="2" d="M -972.64 416.32 S -499.00 319.74&#10;            0.00 416.32 203.64 319.74&#10;            972.64 416.32 1313.28 309.32&#10;            1945.28 416.32 h 110 V 972.64 H -972.64 Z" fill="#203d86"/><path id="3" d="M -972.64 609.48 S -881.00 471.48&#10;            0.00 609.48 476.32 477.48&#10;            972.64 609.48 1058.28 418.48&#10;            1945.28 609.48 h 110 V 972.64 H -972.64 Z" fill="#222975"/></g></svg>