<svg class="border shadow-md dark:border-slate-700" viewBox="0 0 772.64 772.64" xmlns="http://www.w3.org/2000/svg" preserveAspectRatio="none" style="width: 772.64px; height: 772.64px;"><rect class="bg" id="bg" x="0" y="0" width="772.64" height="772.64" fill="#ffffff"/><g transform="rotate(0 386.32 386.32)"><path id="-1" d="M -972.64 -55.85 S -496.32 -135.85&#10;            0.00 -55.85 476.32 -114.85&#10;            972.64 -55.85 1406.28 -122.85&#10;            1945.28 -55.85 h 110 V 972.64 H -972.64 Z" fill="#1A79B9"/><path id="0" d="M -972.64 30.00 S -876.00 -12.92&#10;            0.00 30.00 70.64 -12.92&#10;            972.64 30.00 1410.28 -12.92&#10;            1945.28 30.00 h 110 V 972.64 H -972.64 Z" fill="#1b70b1"/><path id="1" d="M -972.64 115.85 S -496.32 42.85&#10;            0.00 115.85 476.32 72.92&#10;            972.64 115.85 1448.96 46.85&#10;            1945.28 115.85 h 110 V 972.64 H -972.64 Z" fill="#1c67a9"/><path id="2" d="M -972.64 201.70 S -496.32 158.77&#10;            0.00 201.70 476.32 130.70&#10;            972.64 201.70 1448.96 119.70&#10;            1945.28 201.70 h 110 V 972.64 H -972.64 Z" fill="#1d5ea1"/><path id="3" d="M -972.64 287.55 S -549.00 232.55&#10;            0.00 287.55 192.64 238.55&#10;            972.64 287.55 1022.28 234.55&#10;            1945.28 287.55 h 110 V 972.64 H -972.64 Z" fill="#1e5599"/><path id="4" d="M -972.64 373.40 S -854.00 310.40&#10;            0.00 373.40 165.64 330.47&#10;            972.64 373.40 1416.28 330.47&#10;            1945.28 373.40 h 110 V 972.64 H -972.64 Z" fill="#1f4c91"/><path id="5" d="M -972.64 459.24 S -744.00 378.24&#10;            0.00 459.24 418.64 391.24&#10;            972.64 459.24 1324.28 387.24&#10;            1945.28 459.24 h 110 V 972.64 H -972.64 Z" fill="#204389"/><path id="6" d="M -972.64 545.09 S -496.32 480.09&#10;            0.00 545.09 66.64 502.17&#10;            972.64 545.09 1111.28 502.17&#10;            1945.28 545.09 h 110 V 972.64 H -972.64 Z" fill="#213a81"/><path id="7" d="M -972.64 630.94 S -496.32 577.94&#10;            0.00 630.94 21.64 588.02&#10;            972.64 630.94 1108.28 588.02&#10;            1945.28 630.94 h 110 V 972.64 H -972.64 Z" fill="#223179"/><path id="8" d="M -972.64 716.79 S -496.32 642.79&#10;            0.00 716.79 476.32 673.87&#10;            972.64 716.79 1218.28 643.79&#10;            1945.28 716.79 h 110 V 972.64 H -972.64 Z" fill="#232871"/></g></svg>